<?xml version="1.0" encoding="utf-8"?>
<svg xmlns="http://www.w3.org/2000/svg" xmlns:xlink="http://www.w3.org/1999/xlink" viewBox="0 0 110 110">
	<path fill="#ff5c00" d="M.64,55A54.36,54.36,0,1,1,55,109.36,54.36,54.36,0,0,1,.64,55"></path>
	<path fill="#fff" d="M99.14,53.17l-.8-.42s-1-.57-1.94,1S87.56,70.9,74.92,70.9c-6.38,0-6.85-5.26-5.77-10.47,1.85-.46,3.68-1,5.49-1.6C96.2,51.62,96.76,38.56,90.49,33.59c0,0-13.18-10-28.8,12.29a36.88,36.88,0,0,0-6.37,17.77c-.68,10.08,6.32,15.71,13.43,15.71,10.57,0,23.45-8.44,30.61-24.16,0,0,.76-1.48-.22-2M72.82,50.23s7.86-15.15,13.44-10.67c0,0,5.47,4.14-11,13.71a32.58,32.58,0,0,1-4.65,2.24,50.18,50.18,0,0,1,2.23-5.28M61.11,34.08s0,0,0,0a1.45,1.45,0,0,0,0-.29c-.43-2.42-5.1-2.07-5.1-2.07-3.85,0-9.43,1.35-15.18,5.14A39.54,39.54,0,0,0,28.51,50.35c-5.94-.37-13,1.37-16.34,8.57-5.32,11.34,4,21.22,15.54,20.34s17.73-12,17.73-12a27.76,27.76,0,0,0,2.18-4.83h0c.49-1.32,1.21-4.08,1.83-6.57v0c3.27-12.06,8-16.65,10.34-19.36a3.64,3.64,0,0,0,1.31-2.4v0ZM36,61.25S32.28,72.93,23.41,72.93s-7.28-13.85,3.31-13c2.75.23,5.86.75,9.34,1.26l0,0m4.83-13.78a59.48,59.48,0,0,0-2.13,5.78c-1.13-.47-2.09-.91-2.85-1.24a16,16,0,0,0-2.86-1,26.35,26.35,0,0,1,4.49-6.3,26.65,26.65,0,0,1,7.87-5.42,71,71,0,0,0-4.52,8.14"></path>
</svg>