<svg width="193" height="32" viewBox="0 0 193 32" fill="none" xmlns="http://www.w3.org/2000/svg">
<g clip-path="url(#clip0)">
<path d="M47.8398 29.8024V24.8945H48.5041L51.0819 28.7481V24.8945H51.704V29.8024H51.0397L48.4619 25.9489V29.8024H47.8398Z" fill="#F28C60"/>
<path d="M58.362 29.3636C58.1406 29.5533 57.9245 29.6851 57.7189 29.7642C57.5133 29.8433 57.2919 29.8802 57.0547 29.8802C56.6646 29.8802 56.3641 29.7853 56.1532 29.5955C55.9423 29.4057 55.8369 29.1632 55.8369 28.8628C55.8369 28.6888 55.8791 28.5306 55.9582 28.3883C56.0372 28.246 56.1427 28.13 56.2692 28.0404C56.3957 27.9508 56.5433 27.8875 56.7015 27.8453C56.8174 27.8137 56.9967 27.7821 57.2392 27.7557C57.7242 27.6977 58.0826 27.6292 58.3146 27.5501C58.3146 27.4658 58.3199 27.4131 58.3199 27.392C58.3199 27.1442 58.2619 26.9755 58.1512 26.8753C57.9983 26.7383 57.7663 26.6698 57.4659 26.6698C57.1812 26.6698 56.9756 26.7172 56.8385 26.8174C56.7015 26.9175 56.6013 27.0915 56.538 27.3445L55.9476 27.2654C56.0003 27.0124 56.09 26.8121 56.2112 26.6539C56.3324 26.5011 56.5117 26.3798 56.7436 26.2955C56.9756 26.2111 57.2444 26.1689 57.5502 26.1689C57.856 26.1689 58.0984 26.2058 58.2882 26.2744C58.478 26.3429 58.6151 26.4378 58.7047 26.5432C58.7943 26.6539 58.8576 26.7857 58.8945 26.9544C58.9156 27.0546 58.9261 27.2444 58.9261 27.5079V28.3092C58.9261 28.868 58.9366 29.2212 58.963 29.3741C58.9894 29.5217 59.0421 29.664 59.1159 29.8011H58.4885C58.42 29.6746 58.3831 29.5323 58.362 29.3636ZM58.3146 28.0193C58.0984 28.1089 57.7663 28.1827 57.3288 28.246C57.081 28.2829 56.9071 28.3198 56.8016 28.3672C56.6962 28.4147 56.6224 28.4779 56.5644 28.5623C56.5064 28.6466 56.4801 28.7415 56.4801 28.8469C56.4801 29.0051 56.5433 29.1422 56.6646 29.2476C56.7858 29.353 56.965 29.4057 57.197 29.4057C57.429 29.4057 57.6345 29.353 57.8138 29.2529C57.993 29.1527 58.1248 29.0104 58.2144 28.8364C58.2777 28.6993 58.3093 28.499 58.3093 28.2354V28.0193H58.3146V28.0193Z" fill="#F28C60"/>
<path d="M64.493 29.2638L64.5826 29.7962C64.4139 29.8331 64.261 29.8489 64.1293 29.8489C63.9131 29.8489 63.7392 29.812 63.6232 29.7435C63.5072 29.675 63.4176 29.5854 63.3701 29.4694C63.3227 29.3587 63.2963 29.1214 63.2963 28.7577V26.7123H62.8535V26.2431H63.2963V25.3628L63.8973 24.999V26.2379H64.5035V26.707H63.8973V28.7841C63.8973 28.958 63.9078 29.0687 63.9289 29.1162C63.95 29.1636 63.9869 29.2058 64.0344 29.2322C64.0818 29.2638 64.1503 29.2743 64.24 29.2743C64.2979 29.2849 64.3876 29.2796 64.493 29.2638Z" fill="#F28C60"/>
<path d="M68.4102 25.59V24.8994H69.0111V25.59H68.4102ZM68.4102 29.802V26.249H69.0111V29.802H68.4102Z" fill="#F28C60"/>
<path d="M73.0273 28.0246C73.0273 27.3656 73.2119 26.8806 73.5756 26.5643C73.8814 26.3007 74.2556 26.1689 74.6932 26.1689C75.1834 26.1689 75.5788 26.3271 75.8898 26.6487C76.2009 26.9702 76.3537 27.4131 76.3537 27.9771C76.3537 28.4358 76.2852 28.7942 76.1482 29.0578C76.0111 29.3214 75.8108 29.5217 75.5472 29.6693C75.2836 29.8116 74.9989 29.8855 74.6879 29.8855C74.1924 29.8855 73.7865 29.7273 73.4807 29.4057C73.1855 29.0842 73.0273 28.6255 73.0273 28.0246ZM73.6494 28.0246C73.6494 28.4779 73.7496 28.8206 73.9446 29.0473C74.1449 29.2739 74.3927 29.3846 74.6932 29.3846C74.9937 29.3846 75.2414 29.2687 75.4418 29.042C75.6421 28.8153 75.737 28.4674 75.737 28.0035C75.737 27.5659 75.6368 27.2285 75.4365 27.0019C75.2362 26.7752 74.9884 26.6645 74.6932 26.6645C74.3927 26.6645 74.1397 26.7752 73.9446 27.0019C73.7496 27.2285 73.6494 27.5712 73.6494 28.0246Z" fill="#F28C60"/>
<path d="M80.3867 29.8011V26.248H80.9297V26.7541C81.1933 26.364 81.5676 26.1689 82.0631 26.1689C82.2792 26.1689 82.4743 26.2058 82.6535 26.2849C82.8328 26.364 82.9698 26.4642 83.0542 26.5854C83.1385 26.7067 83.207 26.8595 83.2439 27.0282C83.265 27.1389 83.2756 27.334 83.2756 27.6134V29.8011H82.6746V27.6397C82.6746 27.392 82.6535 27.2127 82.6061 27.0915C82.5586 26.9702 82.4743 26.8701 82.3583 26.8015C82.2371 26.7277 82.1 26.6908 81.9366 26.6908C81.6783 26.6908 81.4569 26.7699 81.2724 26.9333C81.0878 27.0968 80.993 27.4078 80.993 27.8611V29.8011C80.993 29.8011 80.3867 29.8011 80.3867 29.8011Z" fill="#F28C60"/>
<path d="M89.8444 29.3636C89.623 29.5533 89.4069 29.6851 89.2013 29.7642C88.9957 29.8433 88.7743 29.8802 88.5371 29.8802C88.147 29.8802 87.8465 29.7853 87.6356 29.5955C87.4248 29.4057 87.3193 29.1632 87.3193 28.8628C87.3193 28.6888 87.3615 28.5306 87.4406 28.3883C87.5197 28.246 87.6251 28.13 87.7516 28.0404C87.8781 27.9508 88.0257 27.8875 88.1839 27.8453C88.2999 27.8137 88.4791 27.7821 88.7216 27.7557C89.2066 27.6977 89.5651 27.6292 89.797 27.5501C89.797 27.4658 89.8023 27.4131 89.8023 27.392C89.8023 27.1442 89.7443 26.9755 89.6336 26.8753C89.4807 26.7383 89.2488 26.6698 88.9483 26.6698C88.6636 26.6698 88.458 26.7172 88.3209 26.8174C88.1839 26.9175 88.0837 27.0915 88.0205 27.3445L87.43 27.2654C87.4828 27.0124 87.5724 26.8121 87.6936 26.6539C87.8149 26.5011 87.9941 26.3798 88.2261 26.2955C88.458 26.2111 88.7269 26.1689 89.0326 26.1689C89.3384 26.1689 89.5809 26.2058 89.7706 26.2744C89.9604 26.3429 90.0975 26.4378 90.1871 26.5432C90.2767 26.6539 90.34 26.7857 90.3769 26.9544C90.398 27.0546 90.4085 27.2444 90.4085 27.5079V28.3092C90.4085 28.868 90.4191 29.2212 90.4454 29.3741C90.4718 29.5217 90.5245 29.664 90.5983 29.8011H89.971C89.9024 29.6746 89.8603 29.5323 89.8444 29.3636ZM89.7917 28.0193C89.5756 28.1089 89.2435 28.1827 88.8059 28.246C88.5582 28.2829 88.3842 28.3198 88.2788 28.3672C88.1733 28.4147 88.0995 28.4779 88.0415 28.5623C87.9836 28.6466 87.9572 28.7415 87.9572 28.8469C87.9572 29.0051 88.0205 29.1422 88.1417 29.2476C88.263 29.353 88.4422 29.4057 88.6742 29.4057C88.9061 29.4057 89.1117 29.353 89.2909 29.2529C89.4702 29.1527 89.602 29.0104 89.6916 28.8364C89.7548 28.6993 89.7865 28.499 89.7865 28.2354V28.0193H89.7917V28.0193Z" fill="#F28C60"/>
<path d="M94.6465 29.8015V24.8936H95.2475V29.8015H94.6465Z" fill="#F28C60"/>
<path d="M104.731 31.1612V26.248H105.28V26.7119C105.411 26.5327 105.554 26.3956 105.717 26.306C105.881 26.2164 106.076 26.1689 106.308 26.1689C106.613 26.1689 106.877 26.248 107.109 26.4009C107.341 26.5538 107.515 26.7752 107.636 27.0599C107.752 27.3445 107.815 27.6555 107.815 27.9929C107.815 28.3567 107.752 28.6835 107.62 28.9735C107.489 29.2634 107.299 29.4901 107.051 29.643C106.803 29.7958 106.54 29.8749 106.265 29.8749C106.065 29.8749 105.886 29.8327 105.723 29.7484C105.564 29.664 105.433 29.5586 105.327 29.4268V31.1559H104.731V31.1612ZM105.28 28.0456C105.28 28.5043 105.375 28.8417 105.559 29.0578C105.744 29.2739 105.97 29.3846 106.234 29.3846C106.503 29.3846 106.729 29.2739 106.919 29.0473C107.109 28.8206 107.204 28.4727 107.204 27.9929C107.204 27.5396 107.109 27.2022 106.924 26.9755C106.74 26.7488 106.513 26.6381 106.255 26.6381C105.997 26.6381 105.77 26.7594 105.575 26.9966C105.38 27.2391 105.28 27.587 105.28 28.0456Z" fill="#F28C60"/>
<path d="M111.643 28.0246C111.643 27.3656 111.827 26.8806 112.191 26.5643C112.497 26.3007 112.871 26.1689 113.308 26.1689C113.799 26.1689 114.194 26.3271 114.505 26.6487C114.816 26.9702 114.969 27.4131 114.969 27.9771C114.969 28.4358 114.9 28.7942 114.763 29.0578C114.626 29.3214 114.426 29.5217 114.162 29.6693C113.899 29.8116 113.614 29.8855 113.303 29.8855C112.808 29.8855 112.402 29.7273 112.096 29.4057C111.795 29.0842 111.643 28.6255 111.643 28.0246ZM112.265 28.0246C112.265 28.4779 112.365 28.8206 112.56 29.0473C112.76 29.2739 113.008 29.3846 113.308 29.3846C113.609 29.3846 113.857 29.2687 114.057 29.042C114.257 28.8153 114.352 28.4674 114.352 28.0035C114.352 27.5659 114.252 27.2285 114.052 27.0019C113.851 26.7752 113.604 26.6645 113.308 26.6645C113.008 26.6645 112.755 26.7752 112.56 27.0019C112.365 27.2285 112.265 27.5712 112.265 28.0246Z" fill="#F28C60"/>
<path d="M119.661 29.8011L118.575 26.248H119.197L119.761 28.2987L119.972 29.0631C119.983 29.0262 120.041 28.7784 120.157 28.3303L120.721 26.248H121.338L121.87 28.3093L122.049 28.9893L122.255 28.304L122.866 26.248H123.451L122.339 29.8011H121.712L121.148 27.6714L121.011 27.0652L120.288 29.8011C120.288 29.8011 119.661 29.8011 119.661 29.8011Z" fill="#F28C60"/>
<path d="M129.708 28.6577L130.33 28.7368C130.23 29.1006 130.051 29.3852 129.782 29.5856C129.518 29.7859 129.176 29.886 128.764 29.886C128.243 29.886 127.831 29.7279 127.531 29.4063C127.225 29.0847 127.072 28.6367 127.072 28.0621C127.072 27.4664 127.225 27.0025 127.536 26.6703C127.847 26.3382 128.243 26.1748 128.733 26.1748C129.207 26.1748 129.597 26.3382 129.898 26.6598C130.198 26.9814 130.351 27.44 130.351 28.0251C130.351 28.0621 130.351 28.1148 130.346 28.1833H127.694C127.715 28.5734 127.826 28.8739 128.026 29.0795C128.227 29.2851 128.475 29.3905 128.77 29.3905C128.991 29.3905 129.181 29.3325 129.334 29.2165C129.492 29.0953 129.618 28.9108 129.708 28.6577ZM127.731 27.6825H129.713C129.687 27.382 129.608 27.1606 129.487 27.0077C129.297 26.7758 129.044 26.6598 128.738 26.6598C128.464 26.6598 128.227 26.7547 128.042 26.9392C127.858 27.1237 127.752 27.3715 127.731 27.6825Z" fill="#F28C60"/>
<path d="M134.405 29.8015V26.2484H134.948V26.7861C135.085 26.5331 135.212 26.3697 135.333 26.2853C135.449 26.2062 135.581 26.1641 135.718 26.1641C135.924 26.1641 136.129 26.2273 136.335 26.3591L136.129 26.9179C135.981 26.8283 135.834 26.7861 135.686 26.7861C135.554 26.7861 135.439 26.8283 135.333 26.9074C135.228 26.9864 135.154 27.0971 135.112 27.2342C135.043 27.4503 135.012 27.6823 135.012 27.9353V29.7962L134.405 29.8015Z" fill="#F28C60"/>
<path d="M147.564 28.4996L148.154 28.5787C148.091 28.9846 147.922 29.3062 147.658 29.5381C147.39 29.7701 147.063 29.886 146.678 29.886C146.193 29.886 145.798 29.7279 145.502 29.4116C145.207 29.0953 145.06 28.6367 145.06 28.0462C145.06 27.6614 145.123 27.3293 145.249 27.0394C145.376 26.7494 145.571 26.5333 145.829 26.3909C146.088 26.2486 146.372 26.1748 146.678 26.1748C147.063 26.1748 147.379 26.275 147.627 26.47C147.869 26.6651 148.027 26.9445 148.096 27.3029L147.511 27.3926C147.453 27.1553 147.358 26.9761 147.216 26.8548C147.073 26.7336 146.905 26.6756 146.704 26.6756C146.399 26.6756 146.156 26.7863 145.966 27.0025C145.777 27.2186 145.682 27.5612 145.682 28.0357C145.682 28.5154 145.771 28.8581 145.956 29.0742C146.14 29.2903 146.377 29.401 146.673 29.401C146.91 29.401 147.105 29.3272 147.263 29.1849C147.421 29.0426 147.521 28.8001 147.564 28.4996Z" fill="#F28C60"/>
<path d="M151.771 28.0246C151.771 27.3656 151.955 26.8806 152.319 26.5643C152.625 26.3007 152.999 26.1689 153.436 26.1689C153.927 26.1689 154.322 26.3271 154.633 26.6487C154.944 26.9702 155.097 27.4131 155.097 27.9771C155.097 28.4358 155.028 28.7942 154.891 29.0578C154.754 29.3214 154.554 29.5217 154.29 29.6693C154.027 29.8169 153.742 29.8855 153.431 29.8855C152.936 29.8855 152.53 29.7273 152.224 29.4057C151.918 29.0842 151.771 28.6255 151.771 28.0246ZM152.393 28.0246C152.393 28.4779 152.493 28.8206 152.693 29.0473C152.893 29.2739 153.141 29.3846 153.442 29.3846C153.742 29.3846 153.99 29.2687 154.19 29.042C154.391 28.8153 154.491 28.4674 154.491 28.0035C154.491 27.5659 154.391 27.2285 154.19 27.0019C153.99 26.7752 153.742 26.6645 153.447 26.6645C153.146 26.6645 152.899 26.7752 152.698 27.0019C152.498 27.2285 152.393 27.5712 152.393 28.0246Z" fill="#F28C60"/>
<path d="M159.13 29.8011V26.248H159.668V26.7488C159.778 26.5749 159.926 26.4325 160.11 26.3271C160.295 26.2217 160.506 26.1689 160.743 26.1689C161.007 26.1689 161.223 26.2217 161.391 26.3324C161.56 26.4431 161.676 26.5959 161.75 26.791C162.029 26.3745 162.398 26.1689 162.846 26.1689C163.2 26.1689 163.468 26.2691 163.658 26.4642C163.848 26.6592 163.943 26.9597 163.943 27.3656V29.8064H163.342V27.5659C163.342 27.3234 163.321 27.1495 163.284 27.044C163.247 26.9386 163.173 26.8543 163.073 26.7857C162.973 26.7172 162.852 26.6908 162.709 26.6908C162.462 26.6908 162.251 26.7752 162.087 26.9386C161.924 27.1073 161.84 27.3709 161.84 27.7346V29.8011H161.239V27.4921C161.239 27.2233 161.191 27.023 161.091 26.8912C160.991 26.7594 160.833 26.6908 160.611 26.6908C160.443 26.6908 160.284 26.733 160.142 26.8226C160 26.9122 159.894 27.044 159.831 27.2127C159.768 27.3814 159.736 27.6345 159.736 27.956V29.8011H159.13Z" fill="#F28C60"/>
<path d="M168.165 31.1612V26.248H168.713V26.7119C168.845 26.5327 168.987 26.3956 169.151 26.306C169.314 26.2164 169.509 26.1689 169.741 26.1689C170.047 26.1689 170.311 26.248 170.543 26.4009C170.775 26.559 170.948 26.7752 171.07 27.0599C171.186 27.3445 171.249 27.6555 171.249 27.9929C171.249 28.3567 171.186 28.6835 171.054 28.9735C170.922 29.2634 170.732 29.4901 170.485 29.643C170.237 29.7958 169.973 29.8749 169.699 29.8749C169.499 29.8749 169.32 29.8327 169.156 29.7484C168.993 29.664 168.866 29.5586 168.761 29.4268V31.1559H168.165V31.1612ZM168.708 28.0456C168.708 28.5043 168.803 28.8417 168.987 29.0578C169.172 29.2739 169.399 29.3846 169.662 29.3846C169.931 29.3846 170.158 29.2739 170.348 29.0473C170.537 28.8206 170.632 28.4727 170.632 27.9929C170.632 27.5396 170.537 27.2022 170.353 26.9755C170.168 26.7488 169.942 26.6381 169.683 26.6381C169.425 26.6381 169.198 26.7594 169.003 26.9966C168.808 27.2391 168.708 27.587 168.708 28.0456Z" fill="#F28C60"/>
<path d="M177.617 29.3636C177.395 29.5533 177.179 29.6851 176.974 29.7642C176.768 29.8433 176.547 29.8802 176.31 29.8802C175.919 29.8802 175.619 29.7853 175.408 29.5955C175.197 29.4057 175.092 29.1632 175.092 28.8628C175.092 28.6888 175.134 28.5306 175.213 28.3883C175.292 28.246 175.398 28.13 175.524 28.0404C175.651 27.9508 175.798 27.8875 175.956 27.8453C176.072 27.8137 176.252 27.7821 176.494 27.7557C176.979 27.6977 177.338 27.6292 177.569 27.5501C177.569 27.4658 177.575 27.4131 177.575 27.392C177.575 27.1442 177.517 26.9755 177.406 26.8753C177.253 26.7383 177.021 26.6698 176.721 26.6698C176.436 26.6698 176.23 26.7172 176.093 26.8174C175.956 26.9175 175.856 27.0915 175.793 27.3445L175.202 27.2654C175.255 27.0124 175.345 26.8121 175.466 26.6539C175.587 26.5011 175.767 26.3798 175.999 26.2955C176.23 26.2111 176.499 26.1689 176.805 26.1689C177.111 26.1689 177.353 26.2058 177.543 26.2744C177.733 26.3482 177.87 26.4378 177.96 26.5432C178.049 26.6539 178.112 26.7857 178.149 26.9544C178.17 27.0546 178.181 27.2444 178.181 27.5079V28.3092C178.181 28.868 178.192 29.2212 178.218 29.3741C178.244 29.5217 178.297 29.664 178.371 29.8011H177.743C177.675 29.6746 177.638 29.5323 177.617 29.3636ZM177.569 28.0193C177.353 28.1089 177.021 28.1827 176.584 28.246C176.336 28.2829 176.162 28.3198 176.056 28.3672C175.951 28.4147 175.877 28.4779 175.819 28.5623C175.761 28.6466 175.735 28.7415 175.735 28.8469C175.735 29.0051 175.798 29.1422 175.919 29.2476C176.041 29.353 176.22 29.4057 176.452 29.4057C176.684 29.4057 176.889 29.353 177.069 29.2529C177.248 29.1527 177.38 29.0104 177.469 28.8364C177.533 28.6993 177.564 28.499 177.564 28.2354L177.569 28.0193Z" fill="#F28C60"/>
<path d="M182.436 29.8011V26.248H182.979V26.7541C183.242 26.364 183.616 26.1689 184.112 26.1689C184.328 26.1689 184.523 26.2058 184.702 26.2849C184.882 26.364 185.019 26.4642 185.103 26.5854C185.187 26.7067 185.256 26.8595 185.293 27.0282C185.314 27.1389 185.324 27.334 185.324 27.6134V29.8011H184.723V27.6397C184.723 27.392 184.702 27.2127 184.655 27.0915C184.607 26.9702 184.523 26.8701 184.407 26.8015C184.286 26.7277 184.149 26.6908 183.985 26.6908C183.727 26.6908 183.506 26.7699 183.321 26.9333C183.137 27.0968 183.042 27.4078 183.042 27.8611V29.8011C183.042 29.8011 182.436 29.8011 182.436 29.8011Z" fill="#F28C60"/>
<path d="M189.541 31.1721L189.473 30.6081C189.605 30.645 189.721 30.6608 189.815 30.6608C189.947 30.6608 190.058 30.6397 190.137 30.5923C190.216 30.5448 190.285 30.4868 190.332 30.4025C190.369 30.3445 190.432 30.1916 190.517 29.9544C190.527 29.9228 190.543 29.8701 190.569 29.8068L189.22 26.2484H189.868L190.606 28.3044C190.701 28.568 190.785 28.8421 190.864 29.1268C190.933 28.8526 191.017 28.5785 191.112 28.3149L191.871 26.2432H192.472L191.123 29.8595C190.975 30.2496 190.864 30.5185 190.785 30.6661C190.68 30.8664 190.553 31.0087 190.416 31.1036C190.279 31.1985 190.111 31.2407 189.921 31.2407C189.815 31.246 189.684 31.2196 189.541 31.1721Z" fill="#F28C60"/>
<path d="M49.0264 1.59766V11.3607C49.0264 12.2411 49.0738 13.016 49.174 13.6908C49.2742 14.3656 49.4798 14.9402 49.7961 15.4094C50.1124 15.8838 50.5657 16.237 51.1509 16.4848C51.736 16.7325 52.5162 16.8485 53.4915 16.8485C54.4351 16.8485 55.1995 16.722 55.7846 16.469C56.3698 16.2159 56.8232 15.8522 57.15 15.3725C57.4768 14.8927 57.693 14.3129 57.7984 13.6381C57.9038 12.9633 57.9566 12.2042 57.9566 11.3555V1.59766H60.1548V11.2606C60.1548 12.4309 60.0494 13.4852 59.8385 14.4236C59.6277 15.3619 59.2639 16.1579 58.7526 16.8169C58.2412 17.4758 57.5559 17.9819 56.7019 18.3298C55.8479 18.6778 54.7778 18.857 53.4915 18.857C52.1894 18.857 51.1087 18.6883 50.2441 18.3457C49.3796 18.003 48.6996 17.5127 48.1935 16.8696C47.6874 16.2265 47.3342 15.4357 47.1339 14.4921C46.9283 13.5485 46.8281 12.473 46.8281 11.2711V1.59766H49.0264Z" fill="#3C4B9B"/>
<path d="M65.7901 1.59766V9.01485H67.4981L72.3533 1.59766H74.8678L69.5962 9.82141L75.8905 18.5618H73.2547L67.5455 10.628H65.7901V18.5618H63.5918V1.59766H65.7901Z" fill="#3C4B9B"/>
<path d="M83.903 11.967C83.7237 11.7403 83.497 11.5769 83.2176 11.4767C82.9435 11.3765 82.6641 11.3291 82.39 11.3291H80.4395V18.5513H78.2412V1.59766H85.9536C86.6706 1.59766 87.3295 1.70836 87.9305 1.9245C88.5315 2.14591 89.0481 2.46221 89.4804 2.87866C89.9126 3.29512 90.25 3.79593 90.4925 4.38108C90.735 4.96623 90.8563 5.62519 90.8563 6.35795C90.8563 7.80765 90.4451 8.97268 89.6227 9.85832C88.8003 10.744 87.6511 11.2289 86.1698 11.308L90.0971 16.237C90.3923 16.6113 90.6507 16.8327 90.8773 16.9065C91.104 16.9803 91.3887 17.0172 91.7313 17.0172V18.5565C91.5521 18.6567 91.3465 18.7252 91.1093 18.7779C90.8721 18.8254 90.6717 18.8517 90.5136 18.8517C90.0391 18.8517 89.6121 18.6883 89.2326 18.3615C88.8478 18.0346 88.5051 17.6867 88.1941 17.3124L83.903 11.967ZM80.4342 9.35751H85.5583C86.6179 9.35751 87.3981 9.11502 87.8989 8.62475C88.4049 8.13449 88.658 7.38065 88.658 6.35268C88.658 5.40905 88.4155 4.7132 87.9358 4.26511C87.456 3.81702 86.7602 3.59561 85.8482 3.59561H80.4289L80.4342 9.35751Z" fill="#3C4B9B"/>
<path d="M107.162 18.5618H94.7627V1.59766H107.235L106.429 4.15967H97.4934V8.28737H105.622V10.8757H97.4934V15.9998H107.156L107.162 18.5618Z" fill="#3C4B9B"/>
<path d="M110.404 18.5618V1.59766H113.773L121.68 14.3129V1.59766H124.437V18.5618H121.19L113.161 5.55139V18.5618H110.404Z" fill="#3C4B9B"/>
<path d="M140.405 18.5618H128.006V1.59766H140.479L139.672 4.15967H130.737V8.28737H138.865V10.8757H130.737V15.9998H140.399V18.5618H140.405Z" fill="#3C4B9B"/>
<path d="M149.531 12.2358C149.351 12.0091 149.125 11.8457 148.845 11.7456C148.566 11.6454 148.292 11.598 148.018 11.598H146.405V18.5513H143.647V1.59766H151.655C152.372 1.59766 153.031 1.71363 153.632 1.94031C154.233 2.16699 154.75 2.49911 155.182 2.93138C155.614 3.36366 155.951 3.875 156.194 4.4707C156.436 5.0664 156.558 5.72535 156.558 6.45811C156.558 7.92362 156.189 9.12029 155.445 10.0586C154.707 10.997 153.653 11.5083 152.282 11.6085L155.503 15.6835C155.762 16.0103 155.999 16.2212 156.21 16.3161C156.421 16.4162 156.732 16.4637 157.138 16.4637V18.5618C156.974 18.6409 156.779 18.7147 156.552 18.7674C156.326 18.8254 156.115 18.8517 155.92 18.8517C155.43 18.8517 154.992 18.683 154.602 18.3509C154.212 18.0188 153.88 17.6709 153.6 17.3124L149.531 12.2358ZM146.41 9.06757H150.975C152.014 9.06757 152.746 8.87779 153.173 8.49296C153.595 8.1134 153.806 7.43336 153.806 6.45284C153.806 5.67263 153.616 5.09275 153.231 4.70792C152.846 4.32837 152.193 4.13332 151.265 4.13332H146.41V9.06757Z" fill="#3C4B9B"/>
<path d="M171.718 5.30859C171.212 4.75507 170.643 4.38078 170 4.18573C169.357 3.99068 168.692 3.89052 168.012 3.89052C166.99 3.89052 166.12 4.02231 165.413 4.28062C164.707 4.53893 164.138 4.92903 163.705 5.44038C163.273 5.95173 162.967 6.57906 162.777 7.31709C162.588 8.05512 162.498 8.89858 162.498 9.8422V10.4537C162.498 12.2935 162.967 13.7221 163.916 14.7501C164.86 15.7728 166.367 16.2894 168.434 16.2894C168.903 16.2894 169.367 16.2314 169.815 16.1207C170.263 16.0047 170.695 15.8624 171.122 15.6832V12.3357H168.023V9.74731H173.785V17.3648C172.989 17.7866 172.103 18.1398 171.138 18.4244C170.168 18.7091 169.225 18.8514 168.297 18.8514C166.979 18.8514 165.793 18.6617 164.733 18.2874C163.674 17.9131 162.783 17.3648 162.05 16.6373C161.317 15.9151 160.753 15.0242 160.353 13.9752C159.952 12.9261 159.757 11.7242 159.757 10.3746V9.81057C159.757 8.52429 159.931 7.35926 160.284 6.3102C160.632 5.26115 161.159 4.3597 161.86 3.61112C162.561 2.86255 163.421 2.28794 164.449 1.89257C165.471 1.49193 166.668 1.29688 168.039 1.29688C169.114 1.29688 170.153 1.47611 171.165 1.83458C172.172 2.19305 173.036 2.79402 173.753 3.64275L171.718 5.30859Z" fill="#3C4B9B"/>
<path d="M184.776 18.851C183.411 18.851 182.209 18.6349 181.176 18.2026C180.143 17.7704 179.283 17.1641 178.603 16.3839C177.918 15.6037 177.401 14.6759 177.054 13.6005C176.706 12.5251 176.526 11.3495 176.526 10.0632V9.40427C176.526 8.21815 176.732 7.12165 177.138 6.12004C177.544 5.11842 178.113 4.26442 178.846 3.55802C179.579 2.85162 180.448 2.2981 181.455 1.89745C182.462 1.49681 183.569 1.30176 184.776 1.30176C185.978 1.30176 187.085 1.50208 188.098 1.89745C189.105 2.2981 189.974 2.85162 190.697 3.55802C191.419 4.26442 191.988 5.11842 192.394 6.12004C192.8 7.12165 193.006 8.21288 193.006 9.40427V10.0632C193.006 11.3495 192.837 12.5304 192.494 13.6005C192.152 14.6759 191.635 15.6037 190.944 16.3839C190.254 17.1641 189.394 17.7704 188.372 18.2026C187.339 18.6349 186.142 18.851 184.776 18.851ZM184.776 3.86377C182.984 3.86377 181.64 4.36985 180.738 5.37674C179.837 6.38362 179.384 7.7437 179.384 9.45171V10.0158C179.384 10.912 179.473 11.7396 179.652 12.504C179.832 13.2684 180.132 13.9326 180.554 14.4914C180.976 15.0555 181.524 15.493 182.199 15.8093C182.873 16.1256 183.717 16.2838 184.724 16.2838C185.762 16.2838 186.632 16.1309 187.323 15.8304C188.013 15.5299 188.567 15.1029 188.983 14.5494C189.4 13.9959 189.695 13.3316 189.874 12.562C190.053 11.787 190.143 10.9383 190.143 10.0105V9.44644C190.143 7.73843 189.69 6.37835 188.788 5.37146C187.887 4.36985 186.548 3.86377 184.776 3.86377Z" fill="#3C4B9B"/>
<path d="M11.8085 30.3543C5.298 30.3543 0 25.0563 0 18.5458V1.74512H1.19666V18.5406C1.19666 24.3921 5.95695 29.1524 11.8085 29.1524C15.8676 29.1524 19.5103 26.8961 21.3185 23.2587L22.3887 23.7911C21.4239 25.7311 19.9479 27.3653 18.1134 28.5251C16.2261 29.7217 14.0489 30.3543 11.8085 30.3543Z" fill="#3C4B9B"/>
<path d="M11.7718 25.4682C8.09742 25.4682 5.1084 22.4792 5.1084 18.8048V3.77539H6.30506V18.8101C6.30506 21.8255 8.75637 24.2768 11.7718 24.2768C14.7871 24.2768 17.2384 21.8202 17.2384 18.8048V15.1305H18.4351V18.8048C18.4351 22.4792 15.4461 25.4682 11.7718 25.4682Z" fill="#3C4B9B"/>
<path d="M26.6168 22.4259C25.8471 22.4259 25.0458 22.3837 24.2024 22.2993L23.6225 22.2413L23.6647 21.6615C23.691 21.2714 24.4027 12.1145 28.736 10.1957L29.221 11.2869C27.3495 12.1145 26.2636 14.8663 25.6837 17.0277C25.2303 18.7199 25.0089 20.3225 24.9193 21.1554C29.6585 21.5139 33.0218 20.4226 34.9249 17.9081C38.7995 12.7893 35.6998 3.18437 34.9987 1.20223C28.4355 0.959738 24.4712 3.17383 22.294 5.0927C19.906 7.19609 19.1047 9.37327 19.0994 9.39436L17.9766 8.98844C18.0135 8.88828 18.8938 6.50023 21.5086 4.19652C23.8966 2.08787 28.2615 -0.347629 35.4626 0.0266574L35.8474 0.047744L35.9898 0.406215C36.0372 0.527463 37.1548 3.41105 37.7241 7.09065C38.4991 12.1093 37.8823 15.9892 35.8843 18.6303C33.9707 21.1607 30.8605 22.4259 26.6168 22.4259Z" fill="#F28C60"/>
<path d="M27.9604 18.2294L27.6072 17.0854C29.1729 16.6005 30.3221 15.6726 31.0233 14.3337C32.4466 11.6082 31.7138 7.89171 31.3923 6.60543C27.9025 6.95863 25.4037 8.13947 23.9593 10.1269C21.8453 13.0316 22.7099 16.7481 22.7204 16.785L21.5607 17.0696C21.5185 16.8957 20.5485 12.7943 22.984 9.4363C24.7078 7.05352 27.6705 5.68816 31.7929 5.37186L32.2674 5.33496L32.4097 5.78832C32.4782 6.00446 34.0545 11.1285 32.0829 14.8924C31.2289 16.5161 29.8424 17.6442 27.9604 18.2294Z" fill="#3C4B9B"/>
<path d="M28.6775 30.3543C26.4265 30.3543 24.2388 29.7217 22.3516 28.5198L22.9947 27.5129C24.6922 28.5936 26.6585 29.1629 28.6828 29.1629C32.4204 29.1629 35.8153 27.2546 37.7606 24.0547L38.7833 24.6767C37.75 26.3795 36.2898 27.8028 34.566 28.7939C32.7736 29.8113 30.744 30.3543 28.6775 30.3543Z" fill="#3C4B9B"/>
</g>
<defs>
<clipPath id="clip0">
<rect width="193" height="31.245" fill="white"/>
</clipPath>
</defs>
</svg>
